<svg version="1.1" id="Layer_1" xmlns="http://www.w3.org/2000/svg" xmlns:xlink="http://www.w3.org/1999/xlink" x="0px" y="0px"
	 width="100%" viewBox="0 0 587 587" enable-background="new 0 0 587 587" xml:space="preserve">
<path fill="#FEFFFE" opacity="1.000000" stroke="none" 
	d="
M330.000000,588.000000 
	C220.000000,588.000000 110.500000,588.000000 1.000000,588.000000 
	C1.000000,392.333344 1.000000,196.666672 1.000000,1.000000 
	C196.666672,1.000000 392.333344,1.000000 588.000000,1.000000 
	C588.000000,196.666672 588.000000,392.333344 588.000000,588.000000 
	C502.166656,588.000000 416.333344,588.000000 330.000000,588.000000 
M325.932037,508.052216 
	C331.985596,511.868561 338.138367,515.537537 344.071075,519.533325 
	C354.865692,526.803650 365.599976,527.329346 377.519287,521.634033 
	C399.896149,510.941864 422.644348,501.023956 445.276062,490.868652 
	C482.179779,474.309235 519.058533,457.692200 556.063660,441.361877 
	C570.003784,435.210083 576.105103,424.849518 575.768005,409.848633 
	C575.300171,389.029175 575.244812,368.200165 575.045410,347.374939 
	C574.585876,299.392700 574.157043,251.410126 573.690247,203.427933 
	C573.573914,191.469162 569.235535,181.864304 558.648132,175.343521 
	C544.188049,166.437546 529.948792,157.173645 515.597473,148.090500 
	C466.638580,117.103493 417.636353,86.184631 368.739227,55.100399 
	C359.217468,49.047333 349.450684,48.003338 339.268433,52.435120 
	C309.669556,65.317924 280.155487,78.395599 250.605515,91.390862 
	C219.375778,105.124847 188.150589,118.869186 156.907196,132.572037 
	C146.989517,136.921768 137.184402,141.647980 133.586273,152.863205 
	C131.949280,157.965668 131.432724,163.636566 131.484879,169.039215 
	C131.938324,216.019318 132.622925,262.997253 133.267883,309.975403 
	C133.544632,330.132416 133.871429,350.288788 134.213913,370.444824 
	C134.340836,377.914612 136.643997,384.496094 142.757965,390.126038 
	C151.658173,396.246918 160.396332,402.620850 169.487671,408.443298 
	C202.581299,429.637909 235.787125,450.657440 268.962555,471.724243 
	C287.797913,483.684875 306.656464,495.608978 325.932037,508.052216 
M186.811768,500.762207 
	C181.048553,497.101837 175.305984,493.408447 169.518768,489.786407 
	C133.382050,467.169647 97.258133,444.532166 61.048317,422.032928 
	C58.189751,420.256775 57.450634,418.158478 57.386372,415.088409 
	C56.486671,372.109070 55.587128,329.129181 54.431702,286.156342 
	C54.304222,281.415009 55.709541,279.025482 60.039970,277.158905 
	C77.013222,269.842834 93.810753,262.120117 110.733421,254.684708 
	C113.664200,253.396988 115.287430,251.818329 115.200005,248.401016 
	C114.837830,234.243256 114.651825,220.081039 114.367584,205.921127 
	C114.348778,204.984802 114.050377,204.054092 113.756317,202.423798 
	C107.486916,205.317780 101.670784,208.059097 95.808784,210.698578 
	C71.968681,221.432968 48.107624,232.120834 24.268570,242.857529 
	C13.074665,247.899078 7.330327,256.388733 7.940905,268.882629 
	C8.095344,272.042816 8.003054,275.214325 8.069014,278.379700 
	C9.093088,327.524536 10.232592,376.667389 11.071489,425.815338 
	C11.259915,436.854492 15.696687,444.963898 24.922459,450.729218 
	C33.538063,456.113159 42.102112,461.579559 50.696411,466.997650 
	C93.243927,493.820892 135.837555,520.571411 178.305923,547.519348 
	C186.689255,552.838928 194.891846,553.427673 203.857849,549.366211 
	C229.493271,537.753662 255.209686,526.319885 280.890381,514.807312 
	C285.020599,512.955750 289.131256,511.060577 293.779236,508.945099 
	C292.413574,507.723785 291.867645,507.083588 291.189209,506.651306 
	C277.571381,497.974609 263.983643,489.248199 250.235687,480.782196 
	C248.916870,479.970062 246.349747,480.273254 244.753784,480.963837 
	C228.712097,487.905029 212.685333,494.890533 196.819077,502.220062 
	C193.089310,503.943054 190.279694,503.958160 186.811768,500.762207 
z"/>
<path fill="#2BA8D3" opacity="1.000000" stroke="none" 
	d="
M142.410156,389.571106 
	C136.643997,384.496094 134.340836,377.914612 134.213913,370.444824 
	C133.871429,350.288788 133.544632,330.132416 133.267883,309.975403 
	C132.622925,262.997253 131.938324,216.019318 131.484879,169.039215 
	C131.432724,163.636566 131.949280,157.965668 133.586273,152.863205 
	C137.184402,141.647980 146.989517,136.921768 156.907196,132.572037 
	C188.150589,118.869186 219.375778,105.124847 250.605515,91.390862 
	C280.155487,78.395599 309.669556,65.317924 339.268433,52.435120 
	C349.450684,48.003338 359.217468,49.047333 368.739227,55.100399 
	C417.636353,86.184631 466.638580,117.103493 515.597473,148.090500 
	C529.948792,157.173645 544.188049,166.437546 558.648132,175.343521 
	C569.235535,181.864304 573.573914,191.469162 573.690247,203.427933 
	C574.157043,251.410126 574.585876,299.392700 575.045410,347.374939 
	C575.244812,368.200165 575.300171,389.029175 575.768005,409.848633 
	C576.105103,424.849518 570.003784,435.210083 556.063660,441.361877 
	C519.058533,457.692200 482.179779,474.309235 445.276062,490.868652 
	C422.644348,501.023956 399.896149,510.941864 377.519287,521.634033 
	C365.599976,527.329346 354.865692,526.803650 344.071075,519.533325 
	C338.138367,515.537537 331.985596,511.868561 325.856567,507.650696 
	C325.781067,507.249176 326.052826,506.944489 326.416443,506.970642 
	C331.281952,509.700165 335.893707,512.238281 340.262604,515.141724 
	C348.979248,520.934631 357.876678,526.101196 368.891541,522.924988 
	C373.133209,521.701904 377.176514,519.724670 381.219879,517.891907 
	C395.071655,511.613098 408.842926,505.155701 422.719574,498.932892 
	C445.104736,488.894562 467.565704,479.025391 489.963226,469.014435 
	C507.195251,461.312256 524.400940,453.549988 541.568909,445.706360 
	C545.888367,443.732910 549.798401,440.282043 554.278320,439.354584 
	C565.904663,436.947815 574.346313,423.167847 574.050049,412.176300 
	C573.543579,393.386993 573.246033,374.590393 573.046387,355.794861 
	C572.637878,317.335876 572.325439,278.875732 572.031494,240.415619 
	C571.932129,227.416626 572.450745,214.396072 571.858215,201.423218 
	C571.413147,191.678055 567.474304,183.108246 558.859985,177.582947 
	C549.036926,171.282318 539.082703,165.184616 529.140381,159.072083 
	C519.007568,152.842422 508.745514,146.820129 498.680878,140.483353 
	C491.170563,135.754791 483.949219,130.569473 476.484680,125.765472 
	C461.612976,116.194351 446.692230,106.698433 431.730988,97.267830 
	C425.016296,93.035339 418.178833,88.995064 411.339935,84.964584 
	C410.070984,84.216743 408.291748,84.239357 407.163910,83.368050 
	C405.030029,81.719528 403.401794,79.386139 401.200623,77.861061 
	C395.497223,73.909454 389.466156,70.426064 383.812073,66.409225 
	C378.342743,62.523647 371.799438,60.923714 366.438507,56.362835 
	C358.767242,49.836395 348.719360,51.102455 340.031555,54.241787 
	C327.606384,58.731617 315.748932,64.788216 303.633087,70.139534 
	C284.138733,78.749771 264.702850,87.499435 245.079498,95.805695 
	C240.126205,97.902344 235.739716,100.883507 230.460510,102.688362 
	C217.037643,107.277382 204.257782,113.749184 191.226288,119.480431 
	C177.947128,125.320610 164.530807,130.874573 151.444290,137.119141 
	C140.618469,142.284958 133.535385,150.246765 133.903702,163.409958 
	C134.517960,185.361588 134.682220,207.326523 134.945038,229.286942 
	C135.063766,239.206970 134.878235,249.130508 134.979828,259.050934 
	C135.272964,287.678070 135.665527,316.304199 135.967178,344.931274 
	C136.062012,353.930145 135.887970,362.932831 136.068039,371.929138 
	C136.116302,374.339874 136.638367,376.900452 137.610809,379.096497 
	C139.123932,382.513550 141.208618,385.677460 142.886353,389.099670 
	C142.721664,389.250671 142.410156,389.571106 142.410156,389.571106 
z"/>
<path fill="#E17B31" opacity="1.000000" stroke="none" 
	d="
M187.105042,500.976013 
	C190.279694,503.958160 193.089310,503.943054 196.819077,502.220062 
	C212.685333,494.890533 228.712097,487.905029 244.753784,480.963837 
	C246.349747,480.273254 248.916870,479.970062 250.235687,480.782196 
	C263.983643,489.248199 277.571381,497.974609 291.189209,506.651306 
	C291.867645,507.083588 292.413574,507.723785 293.779236,508.945099 
	C289.131256,511.060577 285.020599,512.955750 280.890381,514.807312 
	C255.209686,526.319885 229.493271,537.753662 203.857849,549.366211 
	C194.891846,553.427673 186.689255,552.838928 178.305923,547.519348 
	C135.837555,520.571411 93.243927,493.820892 50.696411,466.997650 
	C42.102112,461.579559 33.538063,456.113159 24.922459,450.729218 
	C15.696687,444.963898 11.259915,436.854492 11.071489,425.815338 
	C10.232592,376.667389 9.093088,327.524536 8.069014,278.379700 
	C8.003054,275.214325 8.095344,272.042816 7.940905,268.882629 
	C7.330327,256.388733 13.074665,247.899078 24.268570,242.857529 
	C48.107624,232.120834 71.968681,221.432968 95.808784,210.698578 
	C101.670784,208.059097 107.486916,205.317780 113.756317,202.423798 
	C114.050377,204.054092 114.348778,204.984802 114.367584,205.921127 
	C114.651825,220.081039 114.837830,234.243256 115.200005,248.401016 
	C115.287430,251.818329 113.664200,253.396988 110.733421,254.684708 
	C93.810753,262.120117 77.013222,269.842834 60.039970,277.158905 
	C55.709541,279.025482 54.304222,281.415009 54.431702,286.156342 
	C55.587128,329.129181 56.486671,372.109070 57.386372,415.088409 
	C57.450634,418.158478 58.189751,420.256775 61.048317,422.032928 
	C97.258133,444.532166 133.382050,467.169647 169.518768,489.786407 
	C175.305984,493.408447 181.048553,497.101837 187.105042,500.976013 
M49.224285,233.982361 
	C48.113220,234.950317 47.002155,235.918289 45.264671,236.902115 
	C44.847214,236.917618 44.429760,236.933105 43.265110,236.943542 
	C41.807072,237.608353 40.349033,238.273163 38.129963,238.952728 
	C31.412828,242.620758 24.695694,246.288788 17.285038,250.054642 
	C12.482210,253.652664 9.872379,258.417084 9.977606,264.452118 
	C10.258368,280.554443 10.677534,296.654297 10.953475,312.756653 
	C11.337741,335.180298 11.604089,357.605927 11.993183,380.029480 
	C12.258173,395.300903 12.629601,410.570679 13.016697,425.839600 
	C13.044222,426.925323 13.592933,427.997864 13.914900,429.915009 
	C13.502390,436.909424 17.062716,442.303528 22.059153,446.231110 
	C28.902435,451.610443 36.386803,456.206818 43.784889,460.837708 
	C49.909950,464.671692 56.439278,467.860291 62.560333,471.700104 
	C80.150497,482.734619 97.614281,493.970428 115.146812,505.097046 
	C135.417297,517.961304 155.760010,530.712708 175.962326,543.683044 
	C183.137985,548.289917 190.278732,552.251526 199.109329,548.816528 
	C205.615768,546.285583 212.069031,543.617859 218.541885,541.000854 
	C219.152405,540.754028 219.737518,540.442444 220.327621,540.147339 
	C227.086639,536.767334 233.750427,533.178162 240.624680,530.051575 
	C250.638168,525.497192 260.827454,521.330872 270.891113,516.884399 
	C274.948669,515.091614 278.849274,512.946838 282.866943,511.059326 
	C284.812500,510.145264 286.863281,509.455170 290.083008,508.182983 
	C282.809204,503.660431 276.777985,499.952606 270.790009,496.176178 
	C264.071045,491.938660 257.465302,487.514008 250.634979,483.466583 
	C249.177185,482.602753 246.829697,482.499359 245.131485,482.949249 
	C242.313705,483.695679 239.676880,485.145386 236.986801,486.350159 
	C223.161560,492.541931 209.402206,498.888214 195.458969,504.801208 
	C193.407089,505.671356 189.981003,505.346466 188.062561,504.162231 
	C172.729202,494.696960 157.618484,484.871674 142.413971,475.196869 
	C131.100876,467.998199 119.776031,460.817352 108.408997,453.704315 
	C92.133438,443.519684 75.727562,433.538574 59.615353,423.103058 
	C57.391094,421.662476 55.343422,418.168030 55.230808,415.538055 
	C54.512470,398.762543 54.273693,381.964020 54.048290,365.170746 
	C53.882805,352.841400 54.213367,340.502563 53.898026,328.178833 
	C53.511803,313.085297 52.590954,298.005676 52.163582,282.912598 
	C52.111954,281.089233 53.201607,278.244965 54.600567,277.541931 
	C60.360477,274.647369 65.342010,269.892761 72.351105,269.702087 
	C73.738243,269.664368 75.114250,268.665222 76.468300,268.049835 
	C87.429016,263.068451 98.335548,257.963409 109.370628,253.153061 
	C112.401756,251.831741 113.162979,249.859589 113.069893,246.916901 
	C112.686409,234.793365 112.295052,222.668793 112.096451,210.541473 
	C112.033264,206.683578 110.070061,206.230240 107.296577,207.468369 
	C100.476440,210.513031 93.761284,213.792847 86.285927,217.044556 
	C83.500015,218.663483 80.714096,220.282410 77.160622,221.939255 
	C72.429199,223.931839 67.697784,225.924438 62.377102,227.988739 
	C61.902233,228.303131 61.427364,228.617523 60.204239,228.965164 
	C56.781841,230.631775 53.359447,232.298401 49.224285,233.982361 
M65.602844,272.507660 
	C65.602844,272.507660 65.470093,272.589264 65.602844,272.507660 
z"/>
<path fill="#2BA8D3" opacity="1.000000" stroke="none" 
	d="
M325.642822,507.399353 
	C306.656464,495.608978 287.797913,483.684875 268.962555,471.724243 
	C235.787125,450.657440 202.581299,429.637909 169.487671,408.443298 
	C160.396332,402.620850 151.658173,396.246918 142.584061,389.848572 
	C142.410156,389.571106 142.721664,389.250671 143.225708,389.157715 
	C152.188614,394.861786 160.501999,400.886536 169.139618,406.403687 
	C182.924057,415.208221 196.977249,423.590820 210.820679,432.304535 
	C232.403519,445.889801 253.954285,459.527435 275.425781,473.287750 
	C290.339294,482.845306 305.107971,492.629395 319.911987,502.356903 
	C322.043457,503.757477 324.009979,505.409058 326.052826,506.944489 
	C326.052826,506.944489 325.781067,507.249176 325.642822,507.399353 
z"/>
<path fill="#04AAE6" opacity="1.000000" stroke="none" 
	d="
M326.416443,506.970642 
	C324.009979,505.409058 322.043457,503.757477 319.911987,502.356903 
	C305.107971,492.629395 290.339294,482.845306 275.425781,473.287750 
	C253.954285,459.527435 232.403519,445.889801 210.820679,432.304535 
	C196.977249,423.590820 182.924057,415.208221 169.139618,406.403687 
	C160.501999,400.886536 152.188614,394.861786 143.390411,389.006714 
	C141.208618,385.677460 139.123932,382.513550 137.610809,379.096497 
	C136.638367,376.900452 136.116302,374.339874 136.068039,371.929138 
	C135.887970,362.932831 136.062012,353.930145 135.967178,344.931274 
	C135.665527,316.304199 135.272964,287.678070 134.979828,259.050934 
	C134.878235,249.130508 135.063766,239.206970 134.945038,229.286942 
	C134.682220,207.326523 134.517960,185.361588 133.903702,163.409958 
	C133.535385,150.246765 140.618469,142.284958 151.444290,137.119141 
	C164.530807,130.874573 177.947128,125.320610 191.226288,119.480431 
	C204.257782,113.749184 217.037643,107.277382 230.460510,102.688362 
	C235.739716,100.883507 240.126205,97.902344 245.079498,95.805695 
	C264.702850,87.499435 284.138733,78.749771 303.633087,70.139534 
	C315.748932,64.788216 327.606384,58.731617 340.031555,54.241787 
	C348.719360,51.102455 358.767242,49.836395 366.438507,56.362835 
	C371.799438,60.923714 378.342743,62.523647 383.812073,66.409225 
	C389.466156,70.426064 395.497223,73.909454 401.200623,77.861061 
	C403.401794,79.386139 405.030029,81.719528 407.163910,83.368050 
	C408.291748,84.239357 410.070984,84.216743 411.339935,84.964584 
	C418.178833,88.995064 425.016296,93.035339 431.730988,97.267830 
	C446.692230,106.698433 461.612976,116.194351 476.484680,125.765472 
	C483.949219,130.569473 491.170563,135.754791 498.680878,140.483353 
	C508.745514,146.820129 519.007568,152.842422 529.140381,159.072083 
	C539.082703,165.184616 549.036926,171.282318 558.859985,177.582947 
	C567.474304,183.108246 571.413147,191.678055 571.858215,201.423218 
	C572.450745,214.396072 571.932129,227.416626 572.031494,240.415619 
	C572.325439,278.875732 572.637878,317.335876 573.046387,355.794861 
	C573.246033,374.590393 573.543579,393.386993 574.050049,412.176300 
	C574.346313,423.167847 565.904663,436.947815 554.278320,439.354584 
	C549.798401,440.282043 545.888367,443.732910 541.568909,445.706360 
	C524.400940,453.549988 507.195251,461.312256 489.963226,469.014435 
	C467.565704,479.025391 445.104736,488.894562 422.719574,498.932892 
	C408.842926,505.155701 395.071655,511.613098 381.219879,517.891907 
	C377.176514,519.724670 373.133209,521.701904 368.891541,522.924988 
	C357.876678,526.101196 348.979248,520.934631 340.262604,515.141724 
	C335.893707,512.238281 331.281952,509.700165 326.416443,506.970642 
M523.083496,276.500000 
	C523.018921,256.172516 522.872620,235.844635 522.965881,215.517883 
	C522.982422,211.908920 521.759216,209.758392 518.738892,207.859833 
	C493.928986,192.264725 469.189301,176.557709 444.459473,160.835571 
	C415.512115,142.432129 386.597778,123.976692 357.663605,105.552475 
	C355.170380,103.964882 353.033783,102.380142 349.496124,103.960052 
	C321.076355,116.652229 292.549591,129.105148 264.046387,141.610352 
	C238.445999,152.842010 212.877823,164.149521 187.180252,175.154617 
	C183.291183,176.820145 182.685867,179.101318 182.757828,182.766830 
	C183.849442,238.391907 185.083344,294.016754 185.598114,349.647980 
	C185.679932,358.489563 188.100571,363.375214 195.719315,368.145203 
	C247.087723,400.306244 298.264893,432.785492 349.002319,465.929657 
	C357.915253,471.752045 364.282043,471.627441 373.530426,467.350433 
	C421.711823,445.068390 470.235138,423.523407 518.732605,401.931091 
	C523.121216,399.977142 524.325867,397.502441 524.264038,392.947876 
	C523.741577,354.467041 523.449158,315.983032 523.083496,276.500000 
z"/>
<path fill="#FA6907" opacity="1.000000" stroke="none" 
	d="
M62.966358,227.917023 
	C67.697784,225.924438 72.429199,223.931839 77.796165,222.217041 
	C81.450500,222.272232 84.469299,222.049652 87.570892,221.820953 
	C87.343658,219.880020 87.173782,218.429047 87.003906,216.978073 
	C93.761284,213.792847 100.476440,210.513031 107.296577,207.468369 
	C110.070061,206.230240 112.033264,206.683578 112.096451,210.541473 
	C112.295052,222.668793 112.686409,234.793365 113.069893,246.916901 
	C113.162979,249.859589 112.401756,251.831741 109.370628,253.153061 
	C98.335548,257.963409 87.429016,263.068451 76.468300,268.049835 
	C75.114250,268.665222 73.738243,269.664368 72.351105,269.702087 
	C65.342010,269.892761 60.360477,274.647369 54.600567,277.541931 
	C53.201607,278.244965 52.111954,281.089233 52.163582,282.912598 
	C52.590954,298.005676 53.511803,313.085297 53.898026,328.178833 
	C54.213367,340.502563 53.882805,352.841400 54.048290,365.170746 
	C54.273693,381.964020 54.512470,398.762543 55.230808,415.538055 
	C55.343422,418.168030 57.391094,421.662476 59.615353,423.103058 
	C75.727562,433.538574 92.133438,443.519684 108.408997,453.704315 
	C119.776031,460.817352 131.100876,467.998199 142.413971,475.196869 
	C157.618484,484.871674 172.729202,494.696960 188.062561,504.162231 
	C189.981003,505.346466 193.407089,505.671356 195.458969,504.801208 
	C209.402206,498.888214 223.161560,492.541931 236.986801,486.350159 
	C239.676880,485.145386 242.313705,483.695679 245.131485,482.949249 
	C246.829697,482.499359 249.177185,482.602753 250.634979,483.466583 
	C257.465302,487.514008 264.071045,491.938660 270.790009,496.176178 
	C276.777985,499.952606 282.809204,503.660431 290.083008,508.182983 
	C286.863281,509.455170 284.812500,510.145264 282.866943,511.059326 
	C278.849274,512.946838 274.948669,515.091614 270.891113,516.884399 
	C260.827454,521.330872 250.638168,525.497192 240.624680,530.051575 
	C233.750427,533.178162 227.086639,536.767334 220.327621,540.147339 
	C219.737518,540.442444 219.152405,540.754028 218.541885,541.000854 
	C212.069031,543.617859 205.615768,546.285583 199.109329,548.816528 
	C190.278732,552.251526 183.137985,548.289917 175.962326,543.683044 
	C155.760010,530.712708 135.417297,517.961304 115.146812,505.097046 
	C97.614281,493.970428 80.150497,482.734619 62.560333,471.700104 
	C56.439278,467.860291 49.909950,464.671692 43.784889,460.837708 
	C36.386803,456.206818 28.902435,451.610443 22.059153,446.231110 
	C17.062716,442.303528 13.502390,436.909424 14.222059,429.201721 
	C14.686082,426.353912 14.975231,424.219604 14.979146,422.084778 
	C15.014543,402.787109 15.000051,383.489380 15.000096,364.191650 
	C15.000141,345.060272 14.446298,325.908325 15.156472,306.803345 
	C15.860928,287.852234 11.830807,268.633606 17.978561,249.956818 
	C24.695694,246.288788 31.412828,242.620758 38.866211,238.995056 
	C41.825405,239.930847 43.765255,240.226624 44.012302,236.948593 
	C44.429760,236.933105 44.847214,236.917618 45.842827,237.191589 
	C48.439499,237.630768 50.458023,237.780457 52.476543,237.930145 
	C52.635906,237.528854 52.795269,237.127579 52.954632,236.726288 
	C51.948769,235.805862 50.942905,234.885437 49.937046,233.965027 
	C53.359447,232.298401 56.781841,230.631775 60.754173,229.189606 
	C61.858192,228.915054 62.412273,228.416031 62.966358,227.917023 
z"/>
<path fill="#F46407" opacity="1.000000" stroke="none" 
	d="
M17.631800,250.005737 
	C11.830807,268.633606 15.860928,287.852234 15.156472,306.803345 
	C14.446298,325.908325 15.000141,345.060272 15.000096,364.191650 
	C15.000051,383.489380 15.014543,402.787109 14.979146,422.084778 
	C14.975231,424.219604 14.686082,426.353912 14.214260,428.782501 
	C13.592933,427.997864 13.044222,426.925323 13.016697,425.839600 
	C12.629601,410.570679 12.258173,395.300903 11.993183,380.029480 
	C11.604089,357.605927 11.337741,335.180298 10.953475,312.756653 
	C10.677534,296.654297 10.258368,280.554443 9.977606,264.452118 
	C9.872379,258.417084 12.482210,253.652664 17.631800,250.005737 
z"/>
<path fill="#F46407" opacity="1.000000" stroke="none" 
	d="
M86.644920,217.011322 
	C87.173782,218.429047 87.343658,219.880020 87.570892,221.820953 
	C84.469299,222.049652 81.450500,222.272232 78.179947,222.198074 
	C80.714096,220.282410 83.500015,218.663483 86.644920,217.011322 
z"/>
<path fill="#F46407" opacity="1.000000" stroke="none" 
	d="
M49.580666,233.973694 
	C50.942905,234.885437 51.948769,235.805862 52.954632,236.726288 
	C52.795269,237.127579 52.635906,237.528854 52.476543,237.930145 
	C50.458023,237.780457 48.439499,237.630768 46.156033,237.183655 
	C47.002155,235.918289 48.113220,234.950317 49.580666,233.973694 
z"/>
<path fill="#F46407" opacity="1.000000" stroke="none" 
	d="
M43.638706,236.946075 
	C43.765255,240.226624 41.825405,239.930847 39.246727,238.987686 
	C40.349033,238.273163 41.807072,237.608353 43.638706,236.946075 
z"/>
<path fill="#F46407" opacity="1.000000" stroke="none" 
	d="
M62.671730,227.952881 
	C62.412273,228.416031 61.858192,228.915054 61.128304,229.172974 
	C61.427364,228.617523 61.902233,228.303131 62.671730,227.952881 
z"/>
<path fill="#FA6907" opacity="1.000000" stroke="none" 
	d="
M65.536469,272.548462 
	C65.470093,272.589264 65.602844,272.507660 65.536469,272.548462 
z"/>
<path fill="#FEFEFE" opacity="1.000000" stroke="none" 
	d="
M523.085571,277.000000 
	C523.449158,315.983032 523.741577,354.467041 524.264038,392.947876 
	C524.325867,397.502441 523.121216,399.977142 518.732605,401.931091 
	C470.235138,423.523407 421.711823,445.068390 373.530426,467.350433 
	C364.282043,471.627441 357.915253,471.752045 349.002319,465.929657 
	C298.264893,432.785492 247.087723,400.306244 195.719315,368.145203 
	C188.100571,363.375214 185.679932,358.489563 185.598114,349.647980 
	C185.083344,294.016754 183.849442,238.391907 182.757828,182.766830 
	C182.685867,179.101318 183.291183,176.820145 187.180252,175.154617 
	C212.877823,164.149521 238.445999,152.842010 264.046387,141.610352 
	C292.549591,129.105148 321.076355,116.652229 349.496124,103.960052 
	C353.033783,102.380142 355.170380,103.964882 357.663605,105.552475 
	C386.597778,123.976692 415.512115,142.432129 444.459473,160.835571 
	C469.189301,176.557709 493.928986,192.264725 518.738892,207.859833 
	C521.759216,209.758392 522.982422,211.908920 522.965881,215.517883 
	C522.872620,235.844635 523.018921,256.172516 523.085571,277.000000 
M359.828766,299.765320 
	C359.551422,288.325714 353.541870,280.795105 344.106140,274.857880 
	C298.740204,246.312378 253.543442,217.498062 208.265549,188.812439 
	C206.199585,187.503540 203.929886,186.516190 201.509460,185.250671 
	C201.178818,186.279739 200.805496,186.888123 200.816010,187.489807 
	C201.083603,202.809357 201.299286,218.131378 201.830536,233.442352 
	C201.885391,235.023788 203.543137,237.008133 205.003952,238.001068 
	C210.645126,241.835434 216.521423,245.322464 222.286209,248.976639 
	C251.817902,267.696228 281.374298,286.377563 310.792175,305.274414 
	C312.626801,306.452911 314.386108,309.325134 314.444763,311.457123 
	C315.439148,347.583618 316.115112,383.718842 317.058411,419.846954 
	C317.108582,421.767456 318.410095,424.371429 319.963989,425.420288 
	C330.031891,432.216125 340.311462,438.700287 350.565826,445.217102 
	C354.400818,447.654358 358.353973,449.905670 363.453125,452.960541 
	C362.228790,401.238373 361.038910,350.972992 359.828766,299.765320 
z"/>
<path fill="#E0782E" opacity="1.000000" stroke="none" 
	d="
M359.838928,300.236450 
	C361.038910,350.972992 362.228790,401.238373 363.453125,452.960541 
	C358.353973,449.905670 354.400818,447.654358 350.565826,445.217102 
	C340.311462,438.700287 330.031891,432.216125 319.963989,425.420288 
	C318.410095,424.371429 317.108582,421.767456 317.058411,419.846954 
	C316.115112,383.718842 315.439148,347.583618 314.444763,311.457123 
	C314.386108,309.325134 312.626801,306.452911 310.792175,305.274414 
	C281.374298,286.377563 251.817902,267.696228 222.286209,248.976639 
	C216.521423,245.322464 210.645126,241.835434 205.003952,238.001068 
	C203.543137,237.008133 201.885391,235.023788 201.830536,233.442352 
	C201.299286,218.131378 201.083603,202.809357 200.816010,187.489807 
	C200.805496,186.888123 201.178818,186.279739 201.509460,185.250671 
	C203.929886,186.516190 206.199585,187.503540 208.265549,188.812439 
	C253.543442,217.498062 298.740204,246.312378 344.106140,274.857880 
	C353.541870,280.795105 359.551422,288.325714 359.838928,300.236450 
M338.039032,434.440521 
	C345.232697,439.162262 352.426331,443.884033 359.619995,448.605774 
	C360.150391,448.196198 360.680817,447.786652 361.211212,447.377075 
	C360.824341,442.514038 360.203247,437.656372 360.091949,432.787048 
	C359.655121,413.674194 359.370789,394.557770 359.045380,375.442413 
	C358.688782,354.495636 358.341919,333.548676 358.009796,312.601501 
	C357.954346,309.104614 358.385468,305.550903 357.899048,302.121704 
	C357.207001,297.242645 356.883636,291.901550 354.605988,287.741638 
	C349.734009,278.843567 339.948395,275.289551 332.123322,269.624786 
	C330.875336,268.721344 328.894440,268.840942 327.624451,267.954559 
	C325.778717,266.666382 324.489410,264.523865 322.578735,263.396637 
	C316.770447,259.969849 310.610535,257.123322 304.897522,253.554565 
	C296.973480,248.604614 289.416687,243.070465 281.552002,238.021072 
	C259.376465,223.783615 237.133453,209.651077 214.892288,195.516129 
	C211.326950,193.250259 207.634277,191.184738 203.254517,188.583542 
	C203.121719,191.096069 202.929962,192.691040 202.970596,194.280090 
	C203.272018,206.068329 203.865936,217.856277 203.823700,229.642365 
	C203.808212,233.962616 205.481705,236.295212 208.901581,238.394592 
	C221.034668,245.842804 233.180252,253.285812 245.064438,261.120087 
	C256.887543,268.914062 269.378265,275.619019 281.056427,283.639435 
	C285.266632,286.530945 289.695679,289.113495 294.102722,291.704590 
	C296.399780,293.055145 298.866150,294.117798 302.131897,295.747620 
	C302.909210,299.625671 308.085388,300.387787 311.543945,303.113892 
	C313.333160,304.524170 315.667206,306.590454 315.818817,308.513031 
	C316.821655,321.231873 317.587433,333.985413 317.885040,346.740417 
	C318.443634,370.681091 318.555420,394.632233 319.113495,418.572937 
	C319.161011,420.610535 320.671082,423.276642 322.343781,424.488190 
	C327.154541,427.972687 332.397339,430.860840 338.039032,434.440521 
z"/>
<path fill="#FB6806" opacity="1.000000" stroke="none" 
	d="
M337.754700,434.211914 
	C332.397339,430.860840 327.154541,427.972687 322.343781,424.488190 
	C320.671082,423.276642 319.161011,420.610535 319.113495,418.572937 
	C318.555420,394.632233 318.443634,370.681091 317.885040,346.740417 
	C317.587433,333.985413 316.821655,321.231873 315.818817,308.513031 
	C315.667206,306.590454 313.333160,304.524170 311.543945,303.113892 
	C308.085388,300.387787 302.909210,299.625671 302.131897,295.747620 
	C298.866150,294.117798 296.399780,293.055145 294.102722,291.704590 
	C289.695679,289.113495 285.266632,286.530945 281.056427,283.639435 
	C269.378265,275.619019 256.887543,268.914062 245.064438,261.120087 
	C233.180252,253.285812 221.034668,245.842804 208.901581,238.394592 
	C205.481705,236.295212 203.808212,233.962616 203.823700,229.642365 
	C203.865936,217.856277 203.272018,206.068329 202.970596,194.280090 
	C202.929962,192.691040 203.121719,191.096069 203.254517,188.583542 
	C207.634277,191.184738 211.326950,193.250259 214.892288,195.516129 
	C237.133453,209.651077 259.376465,223.783615 281.552002,238.021072 
	C289.416687,243.070465 296.973480,248.604614 304.897522,253.554565 
	C310.610535,257.123322 316.770447,259.969849 322.578735,263.396637 
	C324.489410,264.523865 325.778717,266.666382 327.624451,267.954559 
	C328.894440,268.840942 330.875336,268.721344 332.123322,269.624786 
	C339.948395,275.289551 349.734009,278.843567 354.605988,287.741638 
	C356.883636,291.901550 357.207001,297.242645 357.899048,302.121704 
	C358.385468,305.550903 357.954346,309.104614 358.009796,312.601501 
	C358.341919,333.548676 358.688782,354.495636 359.045380,375.442413 
	C359.370789,394.557770 359.655121,413.674194 360.091949,432.787048 
	C360.203247,437.656372 360.824341,442.514038 361.211212,447.377075 
	C360.680817,447.786652 360.150391,448.196198 359.619995,448.605774 
	C352.426331,443.884033 345.232697,439.162262 337.754700,434.211914 
z"/>
</svg>